<?xml version="1.0" encoding="UTF-8" standalone="no"?>
<svg width="150px" height="40px" viewBox="0 0 150 40" version="1.1" xmlns="http://www.w3.org/2000/svg" xmlns:xlink="http://www.w3.org/1999/xlink">
    <!-- Generator: Sketch 3.8.3 (29802) - http://www.bohemiancoding.com/sketch -->
    <title>Padala Logo</title>
    <desc>Created with Sketch.</desc>
    <defs>
        <polygon id="path-1" points="0.0785712344 24.7581566 23.779852 24.7581566 23.779852 0.217164402 0.0785712344 0.217164402 0.0785712344 24.7581566"></polygon>
        <polygon id="path-3" points="0.311717431 24.7581566 24.0126805 24.7581566 24.0126805 0.217164402 0.311717431 0.217164402 0.311717431 24.7581566"></polygon>
        <polygon id="path-5" points="0.191303057 24.7581566 23.8907935 24.7581566 23.8907935 0.217164402 0.191303057 0.217164402"></polygon>
    </defs>
    <g id="Symbols" stroke="none" stroke-width="1" fill="none" fill-rule="evenodd">
        <g id="element_Header_v1.2" transform="translate(-29.000000, -20.000000)">
            <g id="Padala-Logo" transform="translate(29.000000, 20.000000)">
                <path d="M88.409098,6.12521215 L83.2721778,6.12521215 C82.3509767,6.12521215 81.4693827,6.8745885 81.3060587,7.79019818 L79.5130541,17.8623468 C78.2438436,15.9502213 76.2995307,14.3055724 72.6752495,14.3055724 C66.9913939,14.3055724 60.97822,18.6616816 59.5599263,26.6205447 L59.5434604,26.7089667 C58.1265017,34.6669456 62.6742092,39.023939 68.2690598,39.023939 C71.8038911,39.023939 74.3819192,37.3770795 76.431703,35.1554771 L75.8215742,38.577408 L80.951374,38.577408 C81.8734652,38.577408 82.7568392,37.8298001 82.9174931,36.9146325 L88.409098,6.12521215 Z M78.0257815,26.7089667 C77.3208624,30.667177 74.2128098,33.2884468 71.0366685,33.2884468 C67.857857,33.2884468 65.6407439,30.667177 66.344773,26.7089667 L66.363019,26.6205447 C67.0750585,22.6194498 70.2204932,20.0415067 73.3966345,20.0415067 C76.5732209,20.0415067 78.7471666,22.6623344 78.0440275,26.6205447 L78.0257815,26.7089667 Z" id="Fill-1" fill="#FFFFFF"></path>
                <path id="Fill-3" fill="#000000"></path>
                <polygon id="Fill-5" fill="#000000" points="38.2834722 17.9067982 38.2834722 17.9067982 38.2834722 17.9001914"></polygon>
                <g id="Group-9" transform="translate(33.376853, 14.265827)">
                    <mask id="mask-2" fill="white">
                        <use xlink:href="#path-1"></use>
                    </mask>
                    <g id="Clip-8"></g>
                    <path d="M16.1069573,15.9116251 C15.6712781,18.3569352 13.2125166,20.0908904 10.0381553,20.0908904 C7.84462854,20.0908904 6.51177954,19.0227528 6.83620255,17.2017019 L6.85266846,17.1110694 C7.23271956,14.9774468 9.22821035,13.8217714 12.1382269,13.8217714 C13.7950539,13.8217714 15.2525098,14.1776699 16.3223492,14.7104124 L16.1069573,15.9116251 Z M14.6535066,0.217164402 C11.3856901,0.217164402 8.98300174,0.704369555 6.69112449,1.49309369 C6.67554863,1.49884112 6.65908272,1.50458854 6.64217178,1.50856753 C5.72631093,1.82113926 5.09704599,2.76504398 5.23188848,3.63423212 L5.23188848,3.63732689 L5.78460916,7.28606022 C8.12098888,6.48584123 10.0408255,5.99730974 12.6379897,5.99730974 C16.0402036,5.99730974 17.507895,7.55309462 17.0081323,10.3556295 L16.9378184,10.7539706 C15.3401797,10.176575 13.6655517,9.77469706 11.2472875,9.77469706 C5.56476696,9.77469706 1.15190195,12.1780067 0.226695586,17.3785459 L0.211119721,17.4682942 C-0.629086927,22.1798598 2.62493374,24.758245 7.14549472,24.758245 C10.4582586,24.758245 12.9552923,23.5579165 14.9352072,21.7333288 L14.4763867,24.311714 L19.381004,24.311714 C20.3039853,24.311714 21.1851342,23.5641061 21.3475682,22.6484964 L23.5188438,10.4882625 C24.6670075,4.04008904 22.0831941,0.217164402 14.6535066,0.217164402 L14.6535066,0.217164402 Z" id="Fill-7" fill="#FFFFFF" mask="url(#mask-2)"></path>
                </g>
                <path d="M126.312698,6.12521215 L121.167767,6.12521215 C120.245676,6.12521215 119.364527,6.8745885 119.201648,7.79019818 L113.725174,38.577408 L118.855864,38.577408 C119.777065,38.577408 120.659549,37.8298001 120.821093,36.9146325 L126.312698,6.12521215 Z" id="Fill-10" fill="#FFFFFF"></path>
                <path id="Fill-12" fill="#000000"></path>
                <path id="Fill-14" fill="#000000"></path>
                <g id="Group-18" transform="translate(87.224843, 14.265827)">
                    <mask id="mask-4" fill="white">
                        <use xlink:href="#path-3"></use>
                    </mask>
                    <g id="Clip-17"></g>
                    <path d="M16.3411738,15.9116251 C15.9054946,18.3569352 13.4476231,20.0908904 10.2697017,20.0908904 C8.07706494,20.0908904 6.74555102,19.0227528 7.07041905,17.2017019 L7.08777502,17.1110694 C7.46782612,14.9774468 9.46153681,13.8217714 12.3715534,13.8217714 C14.0274903,13.8217714 15.4858363,14.1776699 16.5543406,14.7104124 L16.3411738,15.9116251 Z M14.885943,0.217164402 C11.6190166,0.217164402 9.21721824,0.704369555 6.92267085,1.49309369 C6.90887508,1.49884112 6.89374424,1.50458854 6.87638828,1.50856753 C5.96141748,1.82113926 5.33037244,2.76504398 5.46521493,3.63423212 L5.46610498,3.63732689 L6.01971572,7.28606022 C8.35431534,6.48584123 10.275932,5.99730974 12.8713161,5.99730974 C16.27264,5.99730974 17.7407765,7.55309462 17.2414588,10.3556295 L17.1720349,10.7539706 C15.5726161,10.176575 13.9006583,9.77469706 11.481504,9.77469706 C5.79898346,9.77469706 1.38656348,12.1780067 0.460022041,17.3785459 L0.443556126,17.4682942 C-0.393980374,22.1798598 2.85826019,24.758245 7.37971123,24.758245 C10.689805,24.758245 13.1877287,23.5579165 15.1685337,21.7333288 L14.7079331,24.311714 L19.6152205,24.311714 C20.5368667,24.311714 21.4197957,23.5641061 21.5822298,22.6484964 L23.7517252,10.4882625 C24.899889,4.04008904 22.3151855,0.217164402 14.885943,0.217164402 L14.885943,0.217164402 Z" id="Fill-16" fill="#FFFFFF" mask="url(#mask-4)"></path>
                </g>
                <path id="Fill-19" fill="#000000"></path>
                <path id="Fill-21" fill="#000000"></path>
                <g id="Group-25" transform="translate(125.496968, 14.265827)">
                    <mask id="mask-6" fill="white">
                        <use xlink:href="#path-5"></use>
                    </mask>
                    <g id="Clip-24"></g>
                    <path d="M16.2177684,15.9116251 C15.7838693,18.3569352 13.327778,20.0908904 10.1489665,20.0908904 C7.95721979,20.0908904 6.62348074,19.0227528 6.9487938,17.2017019 L6.96436967,17.1110694 C7.34664589,14.9774468 9.34169166,13.8217714 12.2517082,13.8217714 C13.9076452,13.8217714 15.364211,14.1776699 16.4331604,14.7104124 L16.2177684,15.9116251 Z M14.7625376,0.217164402 C11.4982814,0.217164402 9.09381289,0.704369555 6.80193565,1.49309369 C6.78724983,1.49884112 6.77122894,1.50458854 6.75387298,1.50856753 C5.83801213,1.82113926 5.20696709,2.76504398 5.34180958,3.63423212 L5.34269963,3.63732689 L5.89542032,7.28606022 C8.23269008,6.48584123 10.1551968,5.99730974 12.7505809,5.99730974 C16.1519048,5.99730974 17.6187062,7.55309462 17.1198335,10.3556295 L17.0495196,10.7539706 C15.4509908,10.176575 13.7763629,9.77469706 11.3589887,9.77469706 C5.67646816,9.77469706 1.26493823,12.1780067 0.340176887,17.3785459 L0.323710973,17.4682942 C-0.516050651,22.1798598 2.73841504,24.758245 7.25808597,24.758245 C10.5699598,24.758245 13.0661034,23.5579165 15.0469084,21.7333288 L14.5871979,24.311714 L19.4927052,24.311714 C20.4170216,24.311714 21.2981705,23.5641061 21.4597145,22.6484964 L23.6292099,10.4882625 C24.7791538,4.04008904 22.1935602,0.217164402 14.7625376,0.217164402 L14.7625376,0.217164402 Z" id="Fill-23" fill="#FFFFFF" mask="url(#mask-6)"></path>
                </g>
                <path d="M10.6058288,27.0050035 L17.0960692,27.0050035 C25.8069828,27.0050035 33.6211717,22.3752282 35.2143601,13.4472601 L35.2334962,13.3376168 C36.6371041,5.45700719 32.0052869,4.42109939e-05 22.7420977,4.42109939e-05 L8.94499663,4.42109939e-05 C7.80083811,4.42109939e-05 6.7074124,0.929801413 6.50759631,2.06469763 L0,38.5776733 L6.47110428,38.5776733 C7.61303768,38.5776733 8.70646339,37.6492424 8.90761456,36.5156725 L10.6058288,27.0050035 Z" id="Fill-26" fill="#FFFFFF"></path>
                <g id="Group-3" transform="translate(7.894737, 2.139378)">
                    <path d="M19.4855863,5.26728933 C17.4611689,1.6985779 12.1582545,-2.21630561 8.47211485,2.61241915 L8.47033475,2.6146297 C4.84605353,7.4902181 10.1227115,11.4391441 14.1408396,12.3640381 C18.1585226,13.2880478 21.8402121,13.1213724 22.0947662,12.7438105 C22.3884825,12.3941015 21.5126739,8.83865342 19.4855863,5.26728933" id="Fill-28" fill="#92C83E"></path>
                    <path d="M0.346052691,8.95912837 C0.0990639778,12.6074196 4.49368297,17.2407318 11.8548367,18.1236253 C19.2186605,19.0065188 19.4727696,18.5851881 19.8105434,18.5851881 C20.1478721,18.5851881 19.9818779,18.2496266 19.8105434,17.6607362 C19.640989,17.07273 18.9632163,14.9709393 18.8381644,14.5500507 C18.7104423,14.1304883 18.5840553,14.0195187 18.1194495,14.0332241 C17.5671738,14.0460453 12.3861962,13.9222545 9.08500288,11.2930267 C6.41752478,9.1691306 6.01477742,6.6071035 6.24886042,4.86209557 C6.39838872,3.75107329 6.82071717,3.41285919 6.82071717,3.11664553 C6.82071717,2.82352664 0.727438865,3.36909031 0.346052691,8.95912837" id="Fill-30" fill="#177FFF"></path>
                </g>
                <g id="Group-2" transform="translate(38.755981, 1.426252)" fill="#FFFFFF">
                    <path d="M3.30753203,8.78547042 C2.67915714,8.78547042 2.08193398,8.67847981 1.51630758,8.46361438 C0.949346099,8.24919106 0.458483846,7.91981916 0.0428307684,7.47549867 L1.34052282,6.20045361 C1.66405578,6.50462524 2.00716983,6.74645938 2.37120004,6.92551391 C2.73656533,7.10501054 3.15355348,7.19431675 3.62483464,7.19431675 C4.0022156,7.19431675 4.30616747,7.12667393 4.53847037,6.99006196 C4.77121829,6.85389209 4.90873093,6.66422693 4.95100827,6.42239279 L4.95545852,6.39940308 C4.97637468,6.28224394 4.97281448,6.17879022 4.946113,6.0890419 C4.91807644,5.99973569 4.85132274,5.9157348 4.74273671,5.83792346 C4.63459571,5.76011211 4.48017213,5.68141654 4.27857594,5.6040473 C4.0760897,5.52623595 3.80996492,5.4440035 3.47975659,5.35823417 C3.08234952,5.256991 2.72499468,5.14381085 2.40947217,5.01913585 C2.0948397,4.89401874 1.83583532,4.74060659 1.63245903,4.55713096 C1.42908273,4.37365534 1.28756488,4.14552661 1.20657038,3.87274478 C1.12513086,3.59996294 1.12068061,3.26042251 1.19277461,2.8550077 L1.19722486,2.83157587 C1.26308852,2.45755086 1.39348076,2.12022098 1.58662148,1.81958622 C1.78020723,1.51983568 2.02363574,1.26031715 2.31557195,1.04191484 C2.60795319,0.823954637 2.94083167,0.65595286 3.31287232,0.539235837 C3.68580303,0.422076703 4.08365512,0.363718191 4.50776366,0.363718191 C5.11210722,0.363718191 5.65192219,0.453466508 6.12631853,0.632521034 C6.60160491,0.812017669 7.02081819,1.06932565 7.3848484,1.4048871 L6.20197273,2.76128039 C5.87665967,2.51193038 5.55090158,2.31519146 5.22336339,2.17062151 C4.89538018,2.02693578 4.55493628,1.95442975 4.20203169,1.95442975 C3.84823705,1.95442975 3.5718767,2.02251468 3.37117056,2.15912665 C3.17001939,2.29529651 3.05208784,2.46506673 3.01559582,2.66799519 L3.01114557,2.69142702 C2.98755926,2.82450211 2.99289956,2.93900859 3.02672144,3.03627277 C3.06054331,3.13397907 3.13708756,3.22151684 3.25724423,3.2997703 C3.37606583,3.37802375 3.54562025,3.45185611 3.7645724,3.52215159 C3.98396958,3.59200497 4.26211002,3.6737953 4.59810368,3.7670805 C4.99462069,3.87672377 5.34396509,3.99963033 5.64569184,4.13580019 C5.94741859,4.27241216 6.19307223,4.43599284 6.38354281,4.62742644 C6.57312333,4.81797583 6.70173547,5.04256767 6.77026928,5.29987566 C6.83835806,5.55718364 6.84058318,5.86533427 6.77738967,6.22388543 L6.77293943,6.24731726 C6.70084542,6.65273207 6.56244274,7.01349378 6.3581764,7.32916028 C6.15346503,7.64482678 5.89935593,7.91009274 5.5962941,8.12495817 C5.2936773,8.33893938 4.9478931,8.50296217 4.55983155,8.6157002 C4.17221503,8.72888035 3.75522688,8.78547042 3.30753203,8.78547042" id="Fill-32"></path>
                    <polygon id="Fill-34" points="8.67911376 0.480346793 10.6314372 0.480346793 12.178343 3.94295183 14.9566323 0.480346793 16.9089557 0.480346793 15.45595 8.66866497 13.6656156 8.66866497 14.6144083 3.3231137 11.6803604 6.82020332 11.6327427 6.82020332 9.95855979 3.35804039 9.01555244 8.66866497 7.22566306 8.66866497"></polygon>
                    <path d="M22.0807213,5.24125188 L21.4567967,2.58593959 L19.8911998,5.24125188 L22.0807213,5.24125188 Z M21.0291279,0.422253547 L22.7006407,0.422253547 L24.7691156,8.66848813 L22.8733103,8.66848813 L22.4456416,6.83240555 L18.9610981,6.83240555 L17.8814682,8.66848813 L16.0328355,8.66848813 L21.0291279,0.422253547 Z" id="Fill-36"></path>
                    <path d="M29.4957675,4.45761201 C29.9434624,4.45761201 30.3057125,4.35283196 30.5820728,4.14327185 C30.8588782,3.93371174 31.0279876,3.65429826 31.089846,3.30547351 L31.0942963,3.28204169 C31.1628301,2.89431127 31.088956,2.60340293 30.872674,2.40887456 C30.6550569,2.2152304 30.3239585,2.11840833 29.8762636,2.11840833 L28.0748036,2.11840833 L27.6591505,4.45761201 L29.4957675,4.45761201 Z M26.5519291,0.480391004 L30.3199533,0.480391004 C31.3635362,0.480391004 32.1147379,0.757593935 32.5744484,1.31111558 C32.962065,1.77886789 33.0871169,2.40312713 32.9491592,3.18256695 L32.944709,3.20599878 C32.8272225,3.86916369 32.567328,4.40897992 32.1685859,4.82588959 C31.7685087,5.24324138 31.287882,5.54962356 30.728486,5.74415194 L32.2215438,8.66826707 L30.1023362,8.66826707 L28.8010839,6.04876569 L27.3765599,6.04876569 L26.911509,8.66826707 L25.0984784,8.66826707 L26.5519291,0.480391004 Z" id="Fill-38"></path>
                    <polygon id="Fill-40" points="35.9825367 2.14170752 33.4748224 2.14170752 33.7694288 0.480258371 40.598778 0.480258371 40.3041716 2.14170752 37.7955673 2.14170752 36.637168 8.66857655 34.8236923 8.66857655"></polygon>
                </g>
            </g>
        </g>
    </g>
</svg>